<?xml version="1.0" encoding="UTF-8"?>
<svg id="Camada_2" data-name="Camada 2" xmlns="http://www.w3.org/2000/svg" viewBox="0 0 568.16 105.78">
  <defs>
    <style>
      .cls-1 {
        fill: #fff;
      }
    </style>
  </defs>
  <g id="Camada_1-2" data-name="Camada 1">
    <g>
      <path class="cls-1" d="M0,42.52l7.53-8.99c4.81,3.83,10.18,5.85,15.82,5.85,3.62,0,5.58-1.25,5.58-3.35v-.14c0-2.02-1.6-3.14-8.22-4.67C10.32,28.86,2.3,25.93,2.3,15.89v-.14C2.3,6.69,9.48,.14,21.19,.14c8.29,0,14.78,2.23,20.07,6.48l-6.76,9.55c-4.46-3.14-9.34-4.81-13.66-4.81-3.28,0-4.88,1.39-4.88,3.14v.14c0,2.23,1.67,3.21,8.43,4.74,11.22,2.44,18.19,6.06,18.19,15.19v.14c0,9.97-7.88,15.89-19.73,15.89-8.64,0-16.87-2.72-22.86-8.09Z"/>
      <path class="cls-1" d="M59.67,12.83h-14.64V.98h42.8V12.83h-14.64V49.77h-13.52V12.83Z"/>
      <path class="cls-1" d="M89.99,25.51v-.14c0-14.01,11.29-25.37,26.35-25.37s26.21,11.22,26.21,25.23v.14c0,14.01-11.29,25.37-26.35,25.37s-26.21-11.22-26.21-25.23Zm38.75,0v-.14c0-7.04-5.09-13.17-12.55-13.17s-12.34,5.99-12.34,13.03v.14c0,7.04,5.09,13.17,12.48,13.17s12.41-6,12.41-13.04Z"/>
      <path class="cls-1" d="M147.91,25.51v-.14c0-14.22,10.94-25.37,25.72-25.37,9.97,0,16.38,4.18,20.7,10.18l-10.18,7.88c-2.79-3.48-5.99-5.71-10.66-5.71-6.83,0-11.64,5.79-11.64,12.89v.14c0,7.32,4.81,13.03,11.64,13.03,5.09,0,8.08-2.37,11.01-5.92l10.18,7.25c-4.6,6.34-10.8,11.01-21.61,11.01-13.94,0-25.16-10.66-25.16-25.23Z"/>
      <path class="cls-1" d="M200.47,.98h13.52V20.77L230.79,.98h16.03l-18.47,20.98,19.1,27.81h-16.24l-12.27-18.12-4.95,5.51v12.62h-13.52V.98Z"/>
      <path class="cls-1" d="M265.72,25.51v-.14c0-13.8,10.32-25.23,24.67-25.23,8.85,0,14.15,3.14,19.03,7.74l-3.76,4.04c-4.11-3.9-8.71-6.69-15.33-6.69-10.8,0-18.89,8.78-18.89,20v.14c0,11.29,8.16,20.14,18.89,20.14,6.69,0,11.08-2.58,15.75-7.04l3.62,3.55c-5.09,5.16-10.66,8.57-19.52,8.57-14.08,0-24.46-11.08-24.46-25.09Z"/>
      <path class="cls-1" d="M337.37,.63h5.16l22.24,49.14h-5.92l-5.72-12.89h-26.56l-5.79,12.89h-5.65L337.37,.63Zm13.59,31.3l-11.08-24.88-11.15,24.88h22.23Z"/>
      <path class="cls-1" d="M374.38,.98h18.26c11.01,0,18.26,5.86,18.26,15.47v.14c0,10.53-8.78,15.96-19.17,15.96h-11.85v17.22h-5.51V.98Zm17.57,26.56c8.08,0,13.38-4.32,13.38-10.73v-.14c0-6.97-5.23-10.59-13.1-10.59h-12.34V27.53h12.06Z"/>
      <path class="cls-1" d="M421.44,.98h5.51V49.77h-5.51V.98Z"/>
      <path class="cls-1" d="M454.13,6.06h-16.38V.98h38.34V6.06h-16.38V49.77h-5.58V6.06Z"/>
      <path class="cls-1" d="M498.18,.63h5.16l22.24,49.14h-5.92l-5.72-12.89h-26.56l-5.79,12.89h-5.65L498.18,.63Zm13.59,31.3l-11.08-24.88-11.15,24.88h22.23Z"/>
      <path class="cls-1" d="M535.19,.98h5.51V44.68h27.46v5.09h-32.97V.98Z"/>
    </g>
    <g>
      <path class="cls-1" d="M120.86,96.78v-.05c0-4.8,3.52-9.05,8.77-9.05,2.95,0,4.77,.85,6.52,2.32l-1.28,1.5c-1.35-1.17-2.85-2-5.32-2-3.87,0-6.65,3.27-6.65,7.17v.05c0,4.17,2.67,7.27,6.92,7.27,2,0,3.85-.77,5.05-1.75v-4.35h-5.32v-1.77h7.22v6.97c-1.62,1.45-4.07,2.67-7.02,2.67-5.5,0-8.9-4-8.9-9Z"/>
      <path class="cls-1" d="M148.24,87.98h1.97v15.67h9.85v1.82h-11.82v-17.5Z"/>
      <path class="cls-1" d="M168.94,96.78v-.05c0-4.82,3.62-9.05,8.95-9.05s8.9,4.17,8.9,9v.05c0,4.82-3.62,9.05-8.95,9.05s-8.9-4.17-8.9-9Zm15.8,0v-.05c0-3.97-2.9-7.22-6.9-7.22s-6.85,3.2-6.85,7.17v.05c0,3.97,2.9,7.22,6.9,7.22s6.85-3.2,6.85-7.17Z"/>
      <path class="cls-1" d="M197.96,87.98h7.45c2,0,3.57,.58,4.57,1.55,.73,.75,1.12,1.67,1.12,2.8v.05c0,2.27-1.4,3.45-2.77,4.05,2.07,.62,3.75,1.82,3.75,4.22v.05c0,3-2.52,4.77-6.35,4.77h-7.77v-17.5Zm7.12,7.8c2.37,0,4.02-1.08,4.02-3.12v-.05c0-1.72-1.38-2.85-3.87-2.85h-5.32v6.02h5.17Zm.7,7.92c2.65,0,4.3-1.17,4.3-3.12v-.05c0-1.9-1.6-3-4.65-3h-5.52v6.17h5.87Z"/>
      <path class="cls-1" d="M229.49,87.86h1.85l7.97,17.62h-2.12l-2.05-4.62h-9.52l-2.08,4.62h-2.02l7.97-17.62Zm4.87,11.22l-3.97-8.92-4,8.92h7.97Z"/>
      <path class="cls-1" d="M249.76,87.98h1.97v15.67h9.85v1.82h-11.82v-17.5Z"/>
      <path class="cls-1" d="M286.74,87.98h1.97v7.77h10.1v-7.77h1.97v17.5h-1.97v-7.87h-10.1v7.87h-1.97v-17.5Z"/>
      <path class="cls-1" d="M311.96,96.78v-.05c0-4.82,3.62-9.05,8.95-9.05s8.9,4.17,8.9,9v.05c0,4.82-3.62,9.05-8.95,9.05s-8.9-4.17-8.9-9Zm15.8,0v-.05c0-3.97-2.9-7.22-6.9-7.22s-6.85,3.2-6.85,7.17v.05c0,3.97,2.9,7.22,6.9,7.22s6.85-3.2,6.85-7.17Z"/>
      <path class="cls-1" d="M340.99,87.98h1.97v15.67h9.85v1.82h-11.82v-17.5Z"/>
      <path class="cls-1" d="M363.46,87.98h6.07c5.5,0,9.3,3.77,9.3,8.7v.05c0,4.92-3.8,8.75-9.3,8.75h-6.07v-17.5Zm6.07,15.67c4.42,0,7.25-3,7.25-6.87v-.05c0-3.87-2.82-6.92-7.25-6.92h-4.1v13.85h4.1Z"/>
      <path class="cls-1" d="M390.19,87.98h1.97v17.5h-1.97v-17.5Z"/>
      <path class="cls-1" d="M404.29,87.98h1.85l11.02,14.02v-14.02h1.92v17.5h-1.57l-11.3-14.35v14.35h-1.92v-17.5Z"/>
      <path class="cls-1" d="M430.26,96.78v-.05c0-4.8,3.52-9.05,8.77-9.05,2.95,0,4.77,.85,6.52,2.32l-1.28,1.5c-1.35-1.17-2.85-2-5.32-2-3.87,0-6.65,3.27-6.65,7.17v.05c0,4.17,2.67,7.27,6.92,7.27,2,0,3.85-.77,5.05-1.75v-4.35h-5.32v-1.77h7.22v6.97c-1.62,1.45-4.07,2.67-7.02,2.67-5.5,0-8.9-4-8.9-9Z"/>
    </g>
  </g>
</svg>