<?xml version="1.0" encoding="UTF-8"?>
<svg id="Camada_2" data-name="Camada 2" xmlns="http://www.w3.org/2000/svg" viewBox="0 0 200.48 37.32">
  <g id="Camada_2-2" data-name="Camada 2">
    <g id="Camada_2-2" data-name="Camada 2-2">
      <g id="Camada_1-2" data-name="Camada 1-2">
        <path d="M0,15l2.66-3.17c1.7,1.35,3.59,2.06,5.58,2.06,1.28,0,1.97-.44,1.97-1.18v-.05c0-.71-.56-1.11-2.9-1.65-3.66-.83-6.49-1.87-6.49-5.41v-.05C.82,2.36,3.35.05,7.48.05c2.93,0,5.22.79,7.08,2.29l-2.39,3.37c-1.57-1.11-3.3-1.7-4.82-1.7-1.16,0-1.72.49-1.72,1.11v.05c0,.79.59,1.13,2.97,1.67,3.96.86,6.42,2.14,6.42,5.36v.05c0,3.52-2.78,5.61-6.96,5.61C5.02,17.85,2.11,16.89,0,15h0Z"/>
        <path d="M21.06,4.53h-5.17V.35h15.1v4.18h-5.17v13.03h-4.77s0-13.03,0-13.03Z"/>
        <path d="M31.76,9v-.05c0-4.94,3.98-8.95,9.3-8.95s9.25,3.96,9.25,8.9v.05c0,4.94-3.98,8.95-9.3,8.95s-9.25-3.96-9.25-8.9ZM45.43,9v-.05c0-2.48-1.8-4.65-4.43-4.65s-4.35,2.11-4.35,4.6v.05c0,2.48,1.8,4.65,4.4,4.65s4.38-2.12,4.38-4.6h0Z"/>
        <path d="M52.19,9v-.05c0-5.02,3.86-8.95,9.08-8.95,3.52,0,5.78,1.47,7.3,3.59l-3.59,2.78c-.98-1.23-2.11-2.01-3.76-2.01-2.41,0-4.11,2.04-4.11,4.55v.05c0,2.58,1.7,4.6,4.11,4.6,1.8,0,2.85-.84,3.88-2.09l3.59,2.56c-1.62,2.24-3.81,3.88-7.63,3.88-4.92,0-8.88-3.76-8.88-8.9h0Z"/>
        <path d="M70.74.35h4.77v6.98l5.93-6.98h5.66l-6.52,7.4,6.74,9.81h-5.73l-4.33-6.39-1.75,1.94v4.45h-4.77V.35h0Z"/>
        <path d="M93.76,9v-.05C93.76,4.08,97.4.05,102.47.05c3.12,0,4.99,1.11,6.71,2.73l-1.33,1.43c-1.45-1.38-3.07-2.36-5.41-2.36-3.81,0-6.67,3.1-6.67,7.06v.05c0,3.98,2.88,7.11,6.67,7.11,2.36,0,3.91-.91,5.56-2.48l1.28,1.25c-1.8,1.82-3.76,3.02-6.89,3.02-4.97,0-8.63-3.91-8.63-8.85h0Z"/>
        <path d="M119.05.22h1.82l7.85,17.34h-2.09l-2.02-4.55h-9.37l-2.04,4.55h-1.99L119.05.22ZM123.84,11.27l-3.91-8.78-3.93,8.78h7.84,0Z"/>
        <path d="M132.1.35h6.44c3.88,0,6.44,2.07,6.44,5.46v.05c0,3.72-3.1,5.63-6.76,5.63h-4.18v6.08h-1.94V.35h0ZM138.3,9.72c2.85,0,4.72-1.52,4.72-3.79v-.05c0-2.46-1.85-3.74-4.62-3.74h-4.35v7.57h4.26Z"/>
        <path d="M148.71.35h1.94v17.22h-1.94V.35Z"/>
        <path d="M160.24,2.14h-5.78V.35h13.53v1.79h-5.78v15.42h-1.97V2.14Z"/>
        <path d="M175.79.22h1.82l7.85,17.34h-2.09l-2.02-4.55h-9.37l-2.04,4.55h-1.99L175.79.22ZM180.58,11.27l-3.91-8.78-3.93,8.78h7.84,0Z"/>
        <path d="M188.85.35h1.94v15.42h9.69v1.8h-11.63V.35h0Z"/>
        <path d="M42.65,34.15v-.02c0-1.69,1.24-3.19,3.09-3.19,1.04,0,1.68.3,2.3.82l-.45.53c-.48-.41-1.01-.71-1.88-.71-1.37,0-2.35,1.15-2.35,2.53v.02c0,1.47.94,2.57,2.44,2.57.71,0,1.36-.27,1.78-.62v-1.53h-1.88v-.62h2.55v2.46c-.57.51-1.44.94-2.48.94-1.94,0-3.14-1.41-3.14-3.18h0s0,0,0,0Z"/>
        <path d="M52.31,31.04h.7v5.53h3.48v.64h-4.17v-6.17h0Z"/>
        <path d="M59.61,34.15v-.02c0-1.7,1.28-3.19,3.16-3.19s3.14,1.47,3.14,3.18v.02c0,1.7-1.28,3.19-3.16,3.19s-3.14-1.47-3.14-3.18ZM65.19,34.15v-.02c0-1.4-1.02-2.55-2.43-2.55s-2.42,1.13-2.42,2.53v.02c0,1.4,1.02,2.55,2.43,2.55s2.42-1.13,2.42-2.53Z"/>
        <path d="M69.85,31.04h2.63c.71,0,1.26.2,1.61.55.26.26.4.59.4.99v.02c0,.8-.49,1.22-.98,1.43.73.22,1.32.64,1.32,1.49v.02c0,1.06-.89,1.68-2.24,1.68h-2.74v-6.17h0ZM72.37,33.8c.84,0,1.42-.38,1.42-1.1v-.02c0-.61-.49-1.01-1.37-1.01h-1.88v2.12s1.82,0,1.82,0ZM72.61,36.59c.94,0,1.52-.41,1.52-1.1v-.02c0-.67-.56-1.06-1.64-1.06h-1.95v2.18s2.07,0,2.07,0Z"/>
        <path d="M80.98,31h.65l2.81,6.22h-.75l-.72-1.63h-3.36l-.73,1.63h-.71l2.81-6.22ZM82.7,34.96l-1.4-3.15-1.41,3.15h2.81Z"/>
        <path d="M88.13,31.04h.7v5.53h3.48v.64h-4.17v-6.17h0Z"/>
        <path d="M101.18,31.04h.7v2.74h3.56v-2.74h.7v6.17h-.7v-2.78h-3.56v2.78h-.7v-6.17Z"/>
        <path d="M110.08,34.15v-.02c0-1.7,1.28-3.19,3.16-3.19s3.14,1.47,3.14,3.18v.02c0,1.7-1.28,3.19-3.16,3.19s-3.14-1.47-3.14-3.18ZM115.65,34.15v-.02c0-1.4-1.02-2.55-2.43-2.55s-2.42,1.13-2.42,2.53v.02c0,1.4,1.02,2.55,2.43,2.55s2.42-1.13,2.42-2.53Z"/>
        <path d="M120.32,31.04h.7v5.53h3.48v.64h-4.17v-6.17h0Z"/>
        <path d="M128.25,31.04h2.14c1.94,0,3.28,1.33,3.28,3.07v.02c0,1.74-1.34,3.09-3.28,3.09h-2.14v-6.17ZM130.39,36.57c1.56,0,2.56-1.06,2.56-2.42v-.02c0-1.37-1-2.44-2.56-2.44h-1.45v4.89h1.45Z"/>
        <path d="M137.68,31.04h.7v6.17h-.7v-6.17Z"/>
        <path d="M142.66,31.04h.65l3.89,4.95v-4.95h.68v6.17h-.55l-3.99-5.06v5.06h-.68s0-6.17,0-6.17Z"/>
        <path d="M151.82,34.15v-.02c0-1.69,1.24-3.19,3.09-3.19,1.04,0,1.68.3,2.3.82l-.45.53c-.48-.41-1.01-.71-1.88-.71-1.37,0-2.35,1.15-2.35,2.53v.02c0,1.47.94,2.57,2.44,2.57.71,0,1.36-.27,1.78-.62v-1.53h-1.88v-.62h2.55v2.46c-.57.51-1.44.94-2.48.94-1.94,0-3.14-1.41-3.14-3.18h0s0,0,0,0Z"/>
      </g>
    </g>
  </g>
</svg>