<?xml version="1.0" encoding="UTF-8"?>
<svg id="Camada_2" data-name="Camada 2" xmlns="http://www.w3.org/2000/svg" viewBox="0 0 383.3 283.45">
  <g id="Camada_1-2" data-name="Camada 1">
    <g>
      <path d="M.05,216.56c2.77-49.89,18.14-121.1,41.52-165.44,8.88-16.83,13.08-19.15,29.56-28.07S105.65,6.51,123.4,2.71c8.75-1.87,23.3-6.12,29.21,2.51l18.21,35.31,41.29.15,19.21-36.33c3.77-4.75,8.97-4.51,14.62-4.15,23.42,1.5,60.88,18.01,80.37,31.16,8.41,5.67,10.78,10.96,15.42,19.76,18.15,34.43,29.08,78.24,35.32,116.63,2.56,15.76,6.24,37.26,6.25,52.92,0,8.04-7.74,14.3-13.51,19.48-24.16,21.73-61,41.17-93.91,43.06-5.12.29-13.2.86-17.24-2.28l-32.18-39.74c-23.28,2.46-46.92,2.14-70.21.06l-32.46,40.3c-3.75,2.34-11.08,1.9-15.63,1.66-33.26-1.75-70.24-21.09-94.65-43.07-4.81-4.33-10.44-9.74-13.46-15.36.11-2.73-.15-5.51,0-8.23ZM136.86,23.59c-19.2,2.14-39.61,10.5-56.49,19.92-5.65,3.15-11.9,6.19-15.34,11.6-18.77,29.57-30.57,80.27-36.33,114.87-2.11,12.69-5,29.02-5.49,41.67-.1,2.54-.54,6.02,1.09,7.95,21.47,18.94,48.3,36.2,77.25,40.26,5.43.76,9,2.36,12.97-1.8,3.89-4.08,10.54-12.86,13.78-17.66.49-.72,2.55-2.99,1.96-3.65-19.35-3.95-38.75-9.89-56.4-18.82-8.85-4.48-27.89-12.95-20.28-25.32,6.91-11.22,16.5-2.26,23.79,1.6,67.04,35.44,161.45,35.47,228.53,0,6.78-3.59,12.24-10.38,20.4-4.94,4.73,3.15,6.49,9.17,3.95,14.33-2.23,4.53-16.86,12.36-21.83,14.84-17.38,8.67-36.41,14.45-55.42,18.31-.59.65,1.47,2.92,1.96,3.65,1.66,2.44,14.84,19.41,16.01,19.91,3.94,1.66,20.01-2.22,24.85-3.56,23.87-6.65,45.32-21.11,63.5-37.55,1.17-2.04.8-5.12.7-7.52-1.61-39.26-15.48-98.99-31.08-135.09-2.28-5.28-9.82-22.2-13.43-25.49-2.51-2.28-11.14-6.74-14.59-8.61-16.63-8.99-35.25-16.59-54.12-19.1l-10.26,20.23c18.34,2.62,36.8,6.97,54.07,13.67,5.16,2,17.26,6.11,19.33,11.36,2.59,6.59-.26,13.47-7.13,15.43-6.56,1.88-12.14-2.87-18.17-5.1-58.99-21.79-127.61-21.7-186.55.21-7.45,2.77-14.36,9.11-22.1,2.62-3.65-3.06-4.33-8.93-2.67-13.16,2.06-5.24,14.18-9.38,19.33-11.36,17.35-6.67,35.69-10.97,54.07-13.67l-9.88-20.05Z"/>
      <path d="M240.89,102.25c48-4.89,60.5,70.7,16.6,86.22-57.01,20.16-74.61-80.31-16.6-86.22ZM242.35,124.66c-10.5,1.65-16.2,14.38-15.43,24.06,1.05,13.4,14.64,25.65,27.22,16.18,15.27-11.48,7.76-43.32-11.79-40.25Z"/>
      <path d="M134.6,102.24c53.3-5.86,59.41,83.5,8.76,88.11-55.21,5.02-60.06-82.47-8.76-88.11ZM136.84,124.68c-17.45,2.18-21.02,29.53-8.08,39.87,13.93,11.13,28.55-4.53,27.71-19.46-.57-10.07-8.29-21.83-19.63-20.42Z"/>
    </g>
  </g>
</svg>