<?xml version="1.0" encoding="UTF-8"?>
<svg id="Camada_2" data-name="Camada 2" xmlns="http://www.w3.org/2000/svg" viewBox="0 0 409.6 409.02">
  <g id="Camada_1-2" data-name="Camada 1">
    <path d="M409.6,193.44v23.95l-2.63,20.93c-13.93,85.72-83.85,154.98-169.84,168.17l-20.26,2.53h-23.99l-20.26-2.53C86.52,393.15,16.79,324.19,2.78,238.32L.15,217.39c.34-7.92-.46-16.06,0-23.95C6.57,83.82,102.73-4.51,213.31.18c103.95,4.41,190.24,89.9,196.29,193.26ZM264.85,374.68c106.56-38,154.33-163.63,95.01-262.13C304.12,19.99,180.9-4.78,94.6,62.18,4.62,131.98-.05,266.77,86.94,341.13c17.08,14.6,37,25.52,57.96,33.56v-32.74c-15.74,4.57-34.89-.87-46.38-12.38-9.52-9.54-14.37-27.2-30.39-27.55l-2.41-23.94c13.31-1.08,26.62,5.65,35.6,15.15,8.16,8.64,12.16,22.11,24.87,25.47,6.43,1.7,12.66.57,18.74-1.88l6.39-20.76c-15.86-4.88-31.34-11.62-44.38-22.01-41.83-33.32-46.36-96.29-15.74-138.69-3.11-15.99-4.95-50.08,11.69-59.32,15.84-8.79,45.08,9.62,59.17,17.52,28.13-7.83,58.11-7.15,86.32-.15,15.57-9.1,50.19-31.45,64.81-11.7,6.23,8.42,8.01,25.21,7.64,35.47l-2.27,18.18c31.8,44.74,25.66,108.82-19.86,141.76-11.88,8.6-26.04,14.9-40.24,18.52,1.31,4.01,3.4,7.81,4.43,11.94.49,1.98,1.97,9.24,1.97,10.81v56.29ZM295.22,98.44c-14.06.47-25.17,11.53-36.86,17.06-10.19,4.82-19.04.04-29.35-1.65-16-2.63-32.3-2.63-48.3-.02-10.39,1.7-18.99,6.56-29.33,1.67-11.69-5.53-22.9-16.49-36.85-17.05-1.6,9.2-1.92,18.16-.74,27.44.37,2.92,1.93,6.07,2.23,8.94,1.08,10.54-4.93,13.43-9.64,21.34-16.39,27.54-14.9,65.35,6.12,89.97s50.41,29.19,79.58,32.73c-8.38,15.69-21.94,25.4-23.22,44.27-1.3,19.03,1.04,39.53.03,58.72,24.08,4.13,47.9,4.13,71.98,0-1.09-19.39,1.44-40.31.03-59.52-1.32-18.02-15.32-28.36-23.22-43.48,29.17-3.54,59.63-9.36,79.58-32.73,21.02-24.62,22.51-62.43,6.12-89.97-4.71-7.91-10.73-10.8-9.64-21.34.3-2.88,1.86-6.03,2.23-8.94,1.18-9.29.85-18.24-.74-27.45Z"/>
  </g>
</svg>