<?xml version="1.0" encoding="UTF-8"?>
<svg id="Camada_2" data-name="Camada 2" xmlns="http://www.w3.org/2000/svg" viewBox="0 0 409.6 409.6">
  <g id="Camada_1-2" data-name="Camada 1">
    <g>
      <path d="M305.49,409.6H102.89l-21.87-4.05c-36.82-10.09-66.46-39.6-76.81-76.34l-4.21-22.51V104.11C5,47.31,49.36,4.11,106.45,1.17c67.26-3.46,138.23,1.94,205.73.93,52.74,6.58,93.07,51.24,96.21,104,3.84,64.6-2.89,132.86.04,197.84-3.06,55.69-46.92,101.69-102.93,105.65ZM103.53,25.38c-43.4,3.82-77.13,38.79-79.64,82.28-3.72,64.37,2.86,132.31.05,197.05,3.21,43.17,37.75,77.74,80.96,80.96h198.59c43.17-3.21,77.74-37.75,80.96-80.96V106.11c-3.51-43.95-38.3-78.45-82.51-81.01-64.76-3.74-133.28,2.69-198.41.28Z"/>
      <path d="M196.85,93.97c91.79-6.18,151.53,96.76,100.19,173.57-44.06,65.94-142.32,65.71-186.02-.48-47.23-71.54.86-167.38,85.83-173.1ZM197.65,117.9c-67.73,5.07-104.57,82.88-64.76,138.46,36.46,50.9,112.78,48.31,145.81-4.77,37.84-60.81-10.05-139.01-81.05-133.7Z"/>
      <path d="M317.33,54.05c43.03-1.63,45.58,64.01,2.95,66.04s-46.38-64.4-2.95-66.04ZM312.14,93.47c8.47,8.48,21.29-4.9,12.53-12.93s-20.59,4.87-12.53,12.93Z"/>
    </g>
  </g>
</svg>