<?xml version="1.0" encoding="UTF-8"?>
<svg id="Camada_2" data-name="Camada 2" xmlns="http://www.w3.org/2000/svg" viewBox="0 0 490.56 479.85">
  <g id="Camada_1-2" data-name="Camada 1">
    <g>
      <path d="M.31,149.29h128.31v329.12L.31,479.85V149.29ZM106.59,170.37H21.37v286.96l1.44,1.44h83.78V170.37Z"/>
      <path d="M.31,71.68c-.41-3.81-.41-11.52,0-15.33C6.47-1.31,84.13-21.08,116.94,27.31c33.75,49.77-12.67,113.94-70.89,97.76C23.02,118.67,2.88,95.69.31,71.68ZM62.38,21.16c-57.18,2.57-51.44,90.38,6.39,85.01,53.24-4.95,48.38-87.47-6.39-85.01Z"/>
      <path d="M299.06,149.29v21.08c79.24-55.08,185.75,3.23,191.5,97.26v212.22s-126.86,0-126.86,0l-1.44-1.44v-186.84c0-.8-3.26-8.05-4.02-9.39-11.77-20.89-43.25-20.73-55.18-.02-.73,1.27-4,8.69-4,9.41v188.27h-128.31V149.29h128.31ZM277.03,170.37h-85.22v286.96l1.44,1.44h83.78v-162.4c0-30.68,30.4-54.08,59.73-51.14,23.77,2.38,47.51,25.64,47.51,50.19v163.36h83.78l1.49-3.3c-2.6-60.23,3.31-123.13-.06-183.04-3.58-63.77-60.18-114.27-124.68-99.87-30.45,6.8-47.29,27.25-67.77,48.6v-50.78Z"/>
    </g>
  </g>
</svg>