<?xml version="1.0" encoding="UTF-8"?>
<svg id="Camada_2" data-name="Camada 2" xmlns="http://www.w3.org/2000/svg" viewBox="0 0 1692.06 990.63">
  <defs>
    <style>
      .cls-1 {
        fill: #666d41;
      }

      .cls-2 {
        fill: #1d1d1b;
      }

      .cls-2, .cls-3, .cls-4, .cls-5 {
        stroke: #1d1d1b;
        stroke-miterlimit: 10;
      }

      .cls-6 {
        font-size: 18px;
      }

      .cls-6, .cls-7, .cls-3 {
        fill: #fff;
      }

      .cls-6, .cls-8 {
        font-family: Poppins-Regular, Poppins;
      }

      .cls-3, .cls-5 {
        stroke-width: 3px;
      }

      .cls-4, .cls-5 {
        fill: none;
      }

      .cls-8 {
        font-size: 23px;
      }
    </style>
  </defs>
  <g id="Camada_1-2" data-name="Camada 1">
    <circle class="cls-5" cx="818.33" cy="407.01" r="226.69"/>
    <circle class="cls-3" cx="624.22" cy="511.75" r="61.31"/>
    <circle class="cls-3" cx="737.33" cy="198.66" r="61.31"/>
    <circle class="cls-3" cx="1029.15" cy="352.78" r="61.31"/>
    <circle class="cls-3" cx="878.09" cy="610.38" r="61.31"/>
    <rect x="809.83" y="398.51" width="17" height="17"/>
    <rect x="335.67" y="204" width="17" height="17"/>
    <rect x="1232.17" y="6" width="17" height="17"/>
    <rect x="1232.17" y="507.42" width="17" height="17"/>
    <line class="cls-2" x1="344.17" y1="212.5" x2="818.33" y2="407.01"/>
    <line class="cls-4" x1="818.33" y1="407.01" x2="1240.67" y2="14.5"/>
    <line class="cls-4" x1="818.33" y1="407.01" x2="1240.67" y2="515.92"/>
    <path d="M757.51,217.33c-5.94,5.48-14.64.17-12.26-7.57-4.64.41-8.15-3.76-7.57-8.29-8.86-.5-18.45.67-27.23.02-6.14-.46-12.02-4.15-13.96-10.19-3.45-10.72,4.38-20.11,15.26-20.26,3.09-19.78,29.58-23.45,37.53-4.96,9.62.74,16.65,8.86,16.51,18.45,5.6-2.69,11.42,1.83,10.36,8.02-.27,1.56-1.26,2.18-1.71,3.5,7.85,3.2,4.77,14.63-3.6,13.7,2.26,7.34-5.26,12.53-11.54,8.29v14.42c2.97-.46,4.8.86,4.32,3.97,3.56-.35,3.4,2.29,3.24,5.05h6.31c.68,0,.68,1.8,0,1.8h-63.8c-.56,0-.95-1.25-.54-1.8h5.77c-.33-3.38,2.52-4.3,5.41-3.96v-9.37c-2.42,1.67-6.83.64-7.49-2.42-.15-.68.06-2.4-.11-2.59-.07-.08-1.44-.34-2.02-.68-2.47-1.46-3.1-4.59-1.34-6.9.42-.55,1.61-1.21,1.63-1.34.22-1.35-1.56-2.25-.1-5.06,1.81-3.49,4.8-1.76,5.77-2.33.11-.07.79-1.63,1.32-2.11,1.63-1.47,4.9-1.53,6.5,0,.59.57.84,1.74,1.25,2,1.16.71,3.52-.6,5.42,1.53,1.06,1.18,1.26,2.68,1.06,4.21-.08.64-.73,1.33-.65,1.77s1.31,1.27,1.69,1.91c1.86,3.09-.31,7-3.9,6.99.39,4.44-3.01,6.91-7.22,5.39v9.01c3.75-.44,5.19.45,6.31,3.96h21.81c-.12-2.81-.47-5.54,3.25-5.04-.55-3.52,1.08-4.28,4.32-3.97v-15.14ZM763.27,180.21c-1.09-7.35-7.85-11.95-14.98-12.59-4.62-10.65-16.41-15.41-26.65-9.05-5.21,3.23-7.51,8.36-8.44,14.27-18.77-1.26-21.84,24.27-3.1,26.84h28.05c1.11-2.11,2.48-3.12,4.57-4.16-5.07-6.39,1.31-13.81,8.65-11.35,1.09-5.43,7.62-7.69,11.89-3.96ZM757.51,206.52v-7.93c-1.23.43-5.64-1.97-5.4-3.06,1.73-1.75,3.23,1.86,5.4,1.26v-5.77c.56-.41,1.8-.02,1.8.54v5.23c1.52.18,2.89-1.51,4.16-1.79.62-.14.92-.22.9.54-.06,1.67-3.52,2.93-5.06,3.06v7.93c1.68.05,3.26-.84,4.66-1.64.32-.18,2.53-2.49,2.9-.69.33,1.62-6.13,4.39-7.59,4.35.41,3.91-1.58,7.58,3.19,9.06,4.23,1.32,7.58-2.29,6.9-6.55-.23-1.46-1.65-2.09-1.05-3.44,2.74.41,5.76,1.02,7.73-1.46,2.05-2.59,1.39-6.55-1.48-8.22-1.05-.61-4.08-.74-2.64-2.39.45-.51,1.04-.58,1.66-1.58,2.85-4.59-1.11-9.47-6.38-8.19-1.17.28-1.53,1.26-2.67,1.29-.58-.16-.68-2.5-.98-3.35-2.26-6.29-11.62-3.61-10.74,2.99-1.3.3-1.92-.87-3.08-1.06-4.28-.72-7.75,2.12-6.93,6.57.4,2.19,1.6,2.2,2.46,3.3,1.38,1.79-1.48,1.62-2.63,2.1-3.81,1.58-4.37,7.04-.97,9.43,2.31,1.63,4.04.24,6.1,1.48-2.49,3.72-.69,9.26,4.14,9.34,5.41.09,6.04-5.01,5.61-9.32-1.44.23-9.29-3.19-7.59-4.89.7-.7,5.74,3.8,7.57,2.88ZM723.99,209.4c.12-5.27-5.92-5.6-6.35-.33-1.04.79-2.31-1.73-4.65-.04-2.65,1.91-.71,3.32.2,4.86,1.35,2.29-2.57,1-3.18,3.7-.73,3.22,1.83,4.07,4.57,3.74.89.53-1.77,3.86.86,5.45,2.98,1.8,5.46-1.48,4.43-4.43-1.74-.6-3.77-1.09-4.53-3.04,1.47-1.59,2.87,1.45,4.68.9l-.04-3.93c-1.41-.06-4.79-1.84-2.31-2.93l2.35,1.09.04-3.2.87-.31.71.63.19,2.88c.33.38,2.5-2.03,2.88-.53.3,1.21-1.83,2.4-2.84,2.38l-.04,3.92c1.67.16,2.64-1.71,4.32-1.44.38,2.22-2.61,3.11-4.31,3.26.13,1.12-.41,3.77.33,4.5,1.62,1.58,4.83.48,5.06-1.85.13-1.29-1.19-2.4-.55-3.4.47-.74,3.5,1.14,4.8-1.32,1.09-2.06-.21-4.38-2.53-4.44l-.46-.68c-.2-1.15.85-1.09,1.21-1.68,1.23-1.99.12-4.61-2.36-4.73-1.2-.06-2.09,1.28-3.37.98Z"/>
    <rect class="cls-7" x="754.98" y="234.27" width="6.85" height="2.16"/>
    <path d="M722.09,177.41c2.03-.37,5.94-.56,6.5,1.97.34,1.53.31,9.76.06,11.44-.54,3.52-7.91,2.89-8.55.67-.31-1.08-.27-10.75-.05-12.15.2-1.3.8-1.69,2.05-1.92ZM721.82,179.13v11.71c.61.87,4.53.72,4.89.2v-11.58s-4.89-.34-4.89-.34Z"/>
    <path d="M717.14,191.38l-.06,1.38c-8.73,2.09-13.19-10.8-5-14.55.94-.43,5.76-1.9,5.05.36-.19.61-2.78.65-3.7.98-7.14,2.56-3.7,12.94,3.71,11.82Z"/>
    <path d="M733,192.46h3.25s.01,1.22.01,1.22c-.19.82-5.23.86-5.44-.01-.8-3.28,3.82-3.35,3.65-5.34-.06-.7-.53-1.05-1.23-.86-1,.26-.91,2.32-1.85,2.11-2.54-4.54,5.46-5.73,4.88-.53-.22,1.99-2.24,2.11-3.27,3.41Z"/>
    <path d="M634.02,482.65c.14.75-.69,1.36-.45,2.06.13.39,4.7,6.41,5.09,6.53,3.04-1.45,5.98-2.57,9.42-2.32,15.51,1.14,19.42,22.15,5.51,28.91l2.83,7.55c2.26.5,4.38.87,5.34,3.26,1.69,4.19-1.93,8.21-6.25,6.84-.76-.24-1.73-1.19-2.31-1.14-.55.05-7.21,3.64-8.21,4.23-2.53,1.49-1.35,1.23-1.98,3.66-1.26,4.91-8.58,4.73-9.75.06-.25-1.01.11-2.43-.41-3.15l-7.59-4.49c-5.94,7.28-15.99,8.31-23.09,2.01l-6.28,5.61c2.22,4.53-2.95,9.46-7.24,6.66s-2.42-8.73,2.37-9.54l6.48-35.52c-1.46-.89-3.05-1.35-4.5-2.3-7.23-4.72-8.94-15.04-3.59-21.87,7.48-9.55,22.21-7.24,26.24,4.13l8.56-2.41c.05-5.83,8.31-7.17,9.83-1.45h13.05v2.67h-13.05ZM598.95,476.49c-13.47,1.94-13.62,23.76,1.44,25.1,18.14,1.61,18.37-27.96-1.44-25.1ZM628.6,478.85c-2.73.6-2.22,5.71,1.35,4.93,3.02-.66,2.19-5.7-1.35-4.93ZM625.08,483.86l-8.43,2.33c-.34,1.79.04,3.63-.21,5.43-.66,4.89-4.76,9.44-9.14,11.39l2.1,7.82c6.08-1.34,11.62.92,15.57,5.55l8.33-5.26c-.22-1.58-1.14-3.02-1.33-4.63-.62-5.35,1.04-9.75,4.65-13.61l-5.26-6.83c-2.34.78-5.19.23-6.29-2.2ZM644.93,491.62c-15.65,2.13-13.01,27.07,3.75,25.11,16.01-1.88,13.78-27.49-3.75-25.11ZM607.01,511.69l-2.34-7.86-4.75.19-6.4,35.57.6.9,6.33-5.82c-5.47-8.13-2.65-19.19,6.55-22.98ZM611.71,512.99c-17.81,1.83-13.33,29.11,4.18,24.94,15.06-3.58,11.03-26.51-4.18-24.94ZM642.33,518.55c-3.16-.93-5.37-2.99-7.56-5.3l-8.33,5.28c1.37,3.49,2.04,6.4,1.27,10.15-.18.86-1.24,3.39-.97,3.8l7.73,4.65,3.65-1.44,4.21-17.15ZM654.16,526.8l-2.92-7.83c-2.22-.01-4.21.71-6.51.2l-4.04,17.17c.44.56.95,1.1,1.71.85,1.29-1.08,9.38-4.51,9.66-5.49.23-.79-.05-1.65.28-2.68.23-.72,1.07-1.96,1.81-2.21ZM656.19,528.4c-1.98.47-2.05,3.95-.23,4.55,4.63,1.51,4.97-5.68.23-4.55ZM637.2,538.48c-2.23.66-1.99,4.59.6,4.92,3.9.51,3.72-6.2-.6-4.92ZM591.2,542.07c-3.2.17-3.21,5.75.84,4.95,2.62-.52,2.3-5.11-.84-4.95Z"/>
    <path d="M652.12,479.98v2.67s-2.67,0-2.67,0l.13-2.39c.36-.52,1.9-.2,2.54-.28Z"/>
    <path d="M657.16,479.98v2.67s-2.67,0-2.67,0l.13-2.39c.36-.52,1.9-.2,2.54-.28Z"/>
    <path d="M662.21,479.98v2.67l-2.39-.13c-.47-.32-.34-1.73-.15-2.26l2.54-.28Z"/>
    <path d="M614.15,515.58v2.36c2.75-.07,5.22,2.04,5.05,4.9-.05.89-.84,1.98-.83,2.09,0,.16,1.61,1.55,1.87,2.51,1.07,4.04-2.44,6.31-6.09,5.94v2.38s-2.67,0-2.67,0v-2.36c-.83-.1-2.19-.04-2.38-1.05v-13.35c.2-1.07,1.54-1.07,2.38-1.04v-2.37s2.67,0,2.67,0ZM611.48,520.62l.28,3.73c1.94.35,5.25.47,4.77-2.38-.35-2.06-3.57-1.18-5.05-1.35ZM611.48,530.71h5.19c.28,0,1.31-1.43,1.31-1.93,0-.64-1.09-1.93-1.61-1.93h-4.89v3.86Z"/>
    <path d="M602.58,478.79l.13,2.39c1.98.34,3.81.66,4.68,2.74.98,2.35-.46,3.99-.34,4.49.07.28.66.4.88.69,3.17,4.23-.73,8.29-5.35,7.49v2.38s-2.37,0-2.37,0v-2.38c-1.41.18-2.4-.11-2.65-1.65-.31-1.9-.29-10.2,0-12.13.26-1.67,1.24-1.4,2.65-1.35v-2.67s2.37,0,2.37,0ZM604.86,484.51c-.89-1.1-3.36-.56-4.66-.68v3.86c1.93.58,6.93-.38,4.66-3.18ZM600.2,493.92h5.19c.59,0,1.16-1.51,1.04-2.21s-1.36-1.65-1.93-1.65h-4.3v3.86Z"/>
    <path d="M648.27,493.92v2.67c2.93-.4,5.39,1.91,5.05,4.9-.08.73-.7,1.5-.57,2.01.12.47,1.34,1.26,1.6,2.28,1.1,4.18-2.21,6.54-6.09,5.94v2.67s-2.37,0-2.37,0v-2.67c-1.05,0-2.41.31-2.66-1.05v-13.04c.3-1.61,2.09-.71,2.53-1.32l.13-2.39h2.38ZM645.89,502.82c6.69,1.06,6.57-4.81,0-3.86v3.86ZM645.89,509.05h5.19c1.21,0,1.21-3.56,0-3.56h-5.19v3.56Z"/>
    <path d="M639.37,497.19l2.09,1.63c-2.53,3.09-2.46,6.19-.93,9.75-3.07,3.43-3.72-3.49-3.55-5.6.19-2.32,1.3-3.84,2.39-5.77Z"/>
    <path d="M879.74,593.25c2.86-.11,2.35-6.75,4.79-6.26,1.63.33,5.14,8.28,5.58,10.05.38,1.54.71,3.7.62,5.29s-1.69,5.61-1.59,6.28c.09.55,2.28,4.03,2.76,5.24,5.56,14.25-1.76,30.7-16.28,35.53-21.86,7.26-42.05-13.4-34.26-35.1.45-1.26,1.92-3.27,1.99-4.35.08-1.16-.74-2.89-.82-4.22-.44-7.7,2.62-14.13,1.46-21.76l.95-.81c1.82-.47,6.78,7.31,8.58,8.41.37-8.74,4.41-16.02,12.14-20.21s4.38,1.19,4.47,5.09c.18,6.94,6.38,11.44,9.62,16.82ZM867.89,579.51c-.3-1.95.22-4.52,0-6.55-8.13,4.29-12.02,11.29-11.84,20.5.02,1.16,1.27,5.34-1.94,3.2-1.24-.83-4.14-5.34-5.46-6.8-.54-.59-1.2-1.31-1.9-1.69.52,4.81-2.06,9.95-2.07,14.63,0,2.27,1.45,5.59,1.22,7.53-.19,1.56-2.52,5.23-3.08,7.52-4.88,20.04,15.36,36.71,34.17,28.25,11.69-5.25,17.19-18.96,12.8-30.99-.6-1.65-3.04-5.09-3.22-6.11-.28-1.55,1.66-5.12,1.66-7.51,0-3.24-1.69-7.98-3.84-10.36-.27,1.76-3.05,6.57-5.08,5.29-3.09-4.79-10.52-11.19-11.42-16.92Z"/>
    <path d="M910.6,606.78c4.5-.67,6.51,3,.69,2.59-1.08.34-.78,2.79-.51,3.78.69.99,4.05-.44,4.05,1.45s-3.36.46-4.05,1.45c-.28.99-.58,3.43.51,3.78.97.31,3.54-.56,3.54,1.11,0,1.84-3.22.51-4.05,1.45-.36.51-.33,5.36.03,5.94.19.32,2.28,1.74,2.96,2.53,4.28,5.03,3.52,13.2-1.77,17.27-12.07,9.29-26.69-6.77-16.43-18.12.77-.86,2.16-1.06,2.33-2.32.9-8.06-1.22-18.8.11-26.53.9-5.23,7.55-7.37,11.12-3.28,2.29,2.63,1.27,5.69,1.47,8.89ZM907.07,599.32c-2.02-2.02-5.37-.99-6.43,1.52l-.2,28.13c-1.17,1.96-3.45,2.81-4.66,5.07-5.23,9.78,7.36,19.1,15.33,11.64,3.96-3.7,3.82-10.49-.08-14.17-1.02-.96-2.63-1.18-2.87-2.61l-.08-27.42c-.06-.77-.48-1.62-1.01-2.16Z"/>
    <path d="M863.14,602.24c31.27-3.98,33.92,42.18,4.53,43.44-27.6,1.19-30.43-40.15-4.53-43.44ZM865.36,604.67c-9.41.25-17.77,8.74-17.76,18.18,2.29-.71,6.12-.71,8.33.33.88.42,3.08,2.95,4.17,1.38.7-1.01-.74-2.42.4-3.82.93-1.14,2.39-.76,3.61-1.89.65-.6,2.18-3.19,2.35-4.03.46-2.24-2.21-3.12-2.41-5.29-.21-2.3,1.76-2.6,1.3-4.87ZM853.73,624.96c-1.76-.32-4.26.23-6.13,0,.38,12.53,13.12,20.87,24.95,17.33-2.02-3-9.52,1.6-11.19-2.12s3.65-4.52,6.12-5.07c-5.57-10.39,4.14-6.96,9.95-7.16,1.92-.07,3.69-.85,5.52-1.25.75-.17,1.73.13,2.45-.09,1.36-.43.55-4.86.28-6.09-.13-.58.37-1.23-.64-1.04-2.71,2.7-5.88,5.84-10.06,4.97-5.93-1.23-1.16-6,1.31-8.14-2.78-3.33-3.76-6.34-1.62-10.36-2.09-.24-3.97-1.35-6.13-1.29-1.22.04-.39,1.61-.72,2.68-.2.65-1.2,1-1.2,1.77,0,1.18,3.06,2.57,2.38,6.15-.37,1.91-2.68,5.23-4.32,6.27-.54.34-1.72.42-1.8.52-.56.64,1.2,4.24-2.57,5.25-3.56.95-4.27-1.93-6.56-2.34ZM876.78,607.63c-3.14,3.54,2.5,6.71,2.49,8.66s-3.61,3.47-4.61,5.07c1.95,3.06,9.68-3.94,9.71-5.06.15-1.86-6.41-9.49-7.59-8.67ZM885.23,629.19c-.52-.47-6.83,1.29-8.25,1.3-2.78.03-5.75-1.27-8.67-.46-.35,1.52,1.02,2.25,1.25,3.61.74,4.39-2.83,4.02-5.9,5.05,2.33,1.25,5.36-.21,8.22.24,1.3.2,2.5,1.44,3.51,1.59,2.87.43,9.68-8.21,9.83-11.34Z"/>
    <path d="M865.32,579.75c.71.98-1.89,3.92-2.38,4.95-.99,2.05-.86,5.98-3.46,4.7-1.01-1.71,2.32-9.13,4.2-9.91.41-.17,1.52.09,1.64.26Z"/>
    <path d="M848.06,605.47c-1.05-.7-.13-6.9.39-8.2.23-.59.22-1.08,1.05-1.08,2.42,0,.83,3.89.64,5.31-.13,1,.35,3.31-.4,3.83l-1.68.14Z"/>
    <path d="M905.52,605.09v26.22c9.02,1.48,8,14.68-1.05,14.83-9.25.15-10.41-12.86-1.47-15.1v-24.87s.83-1.31.83-1.31l1.68.24ZM902.46,633.95c-4.66,1.2-3.92,9.5,1.58,9.66,7.73.22,6.78-11.81-1.58-9.66Z"/>
    <path d="M1020.15,338.79c.23-.84,1.83-.91,2.57-.8-.45-3.32,1.86-5.6,5.14-5.14l.18-2.58h2.39s0,2.58,0,2.58c3.29-.45,5.6,1.83,5.14,5.14.61-.19,2.57.12,2.57.8v5.63h9.48c.06,0,.57.5.64.65l.22,18.75c3.53,2.23,6.6,4.88,9.44,7.92.64.69,1.98,2.9,2.54,3.24.82.5,2.18.3,3.3.88,2.75,1.4,3.47,5.1,1.73,7.58,3.12,2.09,3.86,4.9,3.51,8.56h-2.58c.31-3.01-.19-6.03-3.7-6.43-5.17-.6-6.86,1.39-6.78,6.44h-2.39c.3-3.61-.3-6.19-4.32-6.45-4.84-.31-6.41,1.68-5.96,6.44h-2.58c.3-3.6-.3-6.18-4.32-6.44-4.84-.31-6.41,1.68-5.96,6.44h-2.58c.3-3.6-.3-6.18-4.32-6.44-5.05-.33-6.11,1.7-6.15,6.45h-2.39c.31-3.03-.2-6.03-3.7-6.44-4.95-.58-7.16,1.37-6.59,6.43h-2.58c.45-4.76-1.12-6.76-5.96-6.44-4.02.26-4.62,2.84-4.32,6.44h-2.58c-.35-3.66.39-6.47,3.51-8.56-1.74-2.47-1.01-6.19,1.73-7.58.91-.46,2.34-.42,2.72-.65.2-.12,2.23-3.16,2.8-3.79,2.88-3.15,6.19-5.71,9.82-7.94l.16-18.42c.07-.15.58-.65.64-.65h9.48v-5.63ZM1033.01,337.99c0-.78.2-2-.64-2.41s-6.49-.41-6.92.48l-.16,1.93h7.72ZM1035.58,340.56h-12.86v18.33h2.57v-4.66c0-.57,1.27-.78,1.75-.82.97-.1,5.97-.26,5.97.82v4.66l2.57.32v-18.65ZM1020.15,346.99h-7.72v15.11l7.72-2.57v-12.54ZM1045.87,346.99h-7.72v12.86c2.73.23,5.16,1.71,7.72,2.57v-15.43ZM1030.44,355.99h-2.58v2.58h2.58v-2.58ZM1037.19,362.1c-6.04-1.4-12.38-1.32-18.33.48-.51.4-.22.32,0,.65.38.56.89.75,1.31,1.59.31.63,1.38,3.92,1.23,4.45-2.68,2.69-5.19,4.03-9.1,3.42-1.12-.17-1.92-1.11-3.23-1.27-.95-.12-4.9-.13-5.63.18l-3.5,4.23c1.93,2.18,3.25,4.7,1.29,7.4-.1.64,1.09,1.09,1.57,1.54.25.23.27.77.31.8.63.49.68-.56.94-.8.52-.48,1.23-.69,1.59-1.33-4.82-10.75,13.23-10.79,8.41,0,.36.63,1.07.84,1.59,1.33.25.23.27.77.31.8.63.49.68-.56.94-.8.52-.48,1.23-.69,1.59-1.33-4.82-10.77,13.23-10.77,8.41,0,.36.63,1.07.84,1.59,1.33.25.23.27.77.31.8.63.49.68-.56.94-.8.52-.48,1.23-.69,1.59-1.33-4.82-10.77,13.23-10.77,8.41,0,.36.63,1.07.84,1.59,1.33.25.23.27.77.31.8.63.49.68-.56.94-.8.52-.48,1.23-.69,1.59-1.33-4.82-10.77,13.23-10.77,8.41,0,.36.63,1.07.84,1.59,1.33.25.23.27.77.31.8.63.49.68-.56.94-.8.52-.48,1.23-.69,1.59-1.33-1.71-2.66-.97-5.06.95-7.3-.08-.53-4.19-5.25-4.79-5.52-1.41-.65-4.34.81-5.95.8-1.24-.01-2.61-1.13-3.83-.97-1.06.14-2.67,2.06-4.19,2.27-.88.12-4.34.14-5.15-.02-.92-.18-3.69-4.37-3.66-5.55.06-.23,2.93-3.17,3.18-3.28,1.3-.58,2.95.53,3.53-1.77ZM1050.05,368.21c-2.87-2.55-6.63-3.96-10.14-5.38-.5.08-1.69,2.96-2.4,3.3-1.21.58-3.18-.49-4.1,1.6.76,2.61,3.41,2.97,5.79,2.34,1.03-.27,2.96-2.4,3.95-2.49,1.05-.1,2.84,1.11,3.92,1.21.93.08,2.05-.46,2.98-.58ZM1006.65,368.85c3.47-.76,5.51,1.78,8.86,1.3.74-.1,3.01-1.39,3.03-2.08-.36-1.81-1.28-3.54-3.04-4.36l-4.57,2.19-4.28,2.95ZM996.27,377.92c-2.96.65-2.31,5.84,1.46,5.02,2.96-.65,2.31-5.84-1.46-5.02ZM1009.13,377.92c-2.96.65-2.31,5.84,1.46,5.02,2.96-.65,2.31-5.84-1.46-5.02ZM1021.99,377.92c-2.96.65-2.31,5.84,1.46,5.02,2.96-.65,2.31-5.84-1.46-5.02ZM1034.85,377.92c-2.96.65-2.31,5.84,1.46,5.02,2.96-.65,2.31-5.84-1.46-5.02ZM1047.71,377.92c-2.96.65-2.31,5.84,1.46,5.02,2.96-.65,2.31-5.84-1.46-5.02ZM1060.57,377.92c-2.96.65-2.31,5.84,1.46,5.02,2.96-.65,2.31-5.84-1.46-5.02Z"/>
    <path d="M1058.66,316.84c3.46,10.92-3.73,18.11-14.65,14.65-3.4-10.77,3.88-18.05,14.65-14.65ZM1055.19,318.7c-6.11-.64-9.9,2.31-9.32,8.68l9.32-8.68ZM1047.48,329.62c5.96.67,9.92-2.05,9.32-8.36l-9.32,8.36Z"/>
    <path d="M1009.79,337.27c-10.8,3.37-18.03-3.85-14.65-14.65,10.92-3.46,18.11,3.73,14.65,14.65ZM1007.93,332.84c.59-6.3-3.36-9.02-9.32-8.36l9.32,8.36ZM1006.32,335.41l-9.32-8.68c-.58,6.37,3.21,9.31,9.32,8.68Z"/>
    <path d="M1043.94,317.09l-1.16,2.27c-10.89-5.35-23.69-4.05-32.77,4.12l-1.4-1.8c-.16-1.02,6.28-4.76,7.46-5.3,9.06-4.18,18.98-3.57,27.87.7Z"/>
    <path d="M1057.75,332.53c3.3,8.31,3.01,17.81-.98,25.83-.46.93-3.53,6-4.3,6.01l-1.75-1.74c7.04-8,8.58-19.67,4.48-29.46l2.55-.63Z"/>
    <path d="M999.08,339.03c.65.3,1.82.06,2.07.77.17.48-.38,5.1-.3,6.4.34,5.61,2.54,10.89,5.74,15.42l-1.76,1.41c-.62.09-3.01-4.11-3.39-4.89-1.7-3.47-2.96-8.08-3.17-11.94-.06-1.04-.06-7.01.8-7.17Z"/>
    <rect x="1025.29" y="343.13" width="7.72" height="2.57"/>
    <rect x="1025.29" y="348.28" width="7.72" height="2.57"/>
    <rect x="1040.73" y="349.56" width="2.58" height="2.58"/>
    <rect x="1040.73" y="354.7" width="2.58" height="2.58"/>
    <rect x="1015" y="349.56" width="2.58" height="2.58"/>
    <rect x="1015" y="354.7" width="2.58" height="2.58"/>
    <rect class="cls-1" x="0" y="198" width="176.79" height="27.09"/>
    <text class="cls-6" transform="translate(16.59 217.91)"><tspan x="0" y="0">CLIMATE IMPACT</tspan></text>
    <text class="cls-8" transform="translate(0 264.99)"><tspan x="0" y="0">Stock Capital is committed to </tspan><tspan x="0" y="35.6">generating a positive environmental </tspan><tspan x="0" y="71.2">impact through innovation and </tspan><tspan x="0" y="106.8">sustainability.</tspan><tspan x="0" y="178">Our business model integrates </tspan><tspan x="0" y="213.6">advanced technologies and </tspan><tspan x="0" y="249.2">responsible practices to reduce </tspan><tspan x="0" y="284.8">carbon emissions, support </tspan><tspan x="0" y="320.4">environmental projects, and drive </tspan><tspan x="0" y="356">the transition to a greener and more </tspan><tspan x="0" y="391.6">efficient economy.</tspan></text>
    <text class="cls-8" transform="translate(1265.07 68.71)"><tspan x="0" y="0">We believe that true investment </tspan><tspan x="0" y="35.6">value goes beyond financial </tspan><tspan x="0" y="71.2">returns—it must create meaningful </tspan><tspan x="0" y="106.8">societal change. </tspan><tspan x="0" y="178">Stock Capital drives initiatives that </tspan><tspan x="0" y="213.6">promote financial inclusion, support </tspan><tspan x="0" y="249.2">local communities, and democratize </tspan><tspan x="0" y="284.8">access to economic opportunities, </tspan><tspan x="0" y="320.4">fostering lasting and positive </tspan><tspan x="0" y="356">impact.</tspan></text>
    <text class="cls-8" transform="translate(1264.67 571.1)"><tspan x="0" y="0">Bitcoin is more than a store of </tspan><tspan x="0" y="35.6">value—it is the foundation of a </tspan><tspan x="0" y="71.2">decentralized and resilient financial </tspan><tspan x="0" y="106.8">system.</tspan><tspan x="0" y="178">Stock Capital holds strategic Bitcoin </tspan><tspan x="0" y="213.6">reserves, ensuring protection </tspan><tspan x="0" y="249.2">against inflation, long-term value </tspan><tspan x="0" y="284.8">preservation, and alignment with </tspan><tspan x="0" y="320.4">the principles of financial freedom </tspan><tspan x="0" y="356">and digital sovereignty.</tspan></text>
    <rect class="cls-1" x="1265.36" width="171.88" height="27.09"/>
    <text class="cls-6" transform="translate(1284.37 19.91)"><tspan x="0" y="0">SOCIAL IMPACT</tspan></text>
    <rect class="cls-1" x="1266.07" y="501.42" width="190.41" height="27.09"/>
    <text class="cls-6" transform="translate(1282.66 521.33)"><tspan x="0" y="0">BITCOIN RESERVES</tspan></text>
  </g>
</svg>