<?xml version="1.0" encoding="UTF-8"?>
<svg id="Camada_2" data-name="Camada 2" xmlns="http://www.w3.org/2000/svg" viewBox="0 0 943.6 1797.61">
  <defs>
    <style>
      .cls-1 {
        fill: #666d41;
      }

      .cls-2 {
        font-size: 18px;
      }

      .cls-2, .cls-3, .cls-4 {
        fill: #fff;
      }

      .cls-2, .cls-5 {
        font-family: Poppins-Regular, Poppins;
      }

      .cls-4, .cls-6, .cls-7 {
        stroke: #1d1d1b;
        stroke-miterlimit: 10;
      }

      .cls-4, .cls-7 {
        stroke-width: 3px;
      }

      .cls-6, .cls-7 {
        fill: none;
      }

      .cls-5 {
        font-size: 23px;
      }
    </style>
  </defs>
  <g id="Camada_1-2" data-name="Camada 1">
    <text class="cls-5" transform="translate(516.6 68.71)"><tspan x="0" y="0">We believe that true investment </tspan><tspan x="0" y="35.6">value goes beyond financial </tspan><tspan x="0" y="71.2">returns—it must create meaningful </tspan><tspan x="0" y="106.8">societal change. </tspan><tspan x="0" y="178">Stock Capital drives initiatives that </tspan><tspan x="0" y="213.6">promote financial inclusion, support </tspan><tspan x="0" y="249.2">local communities, and democratize </tspan><tspan x="0" y="284.8">access to economic opportunities, </tspan><tspan x="0" y="320.4">fostering lasting and positive </tspan><tspan x="0" y="356">impact.</tspan></text>
    <rect class="cls-1" x="516.89" width="171.88" height="27.09"/>
    <text class="cls-2" transform="translate(535.9 19.91)"><tspan x="0" y="0">SOCIAL IMPACT</tspan></text>
    <g>
      <circle class="cls-7" cx="441.39" cy="885.8" r="313.82"/>
      <circle class="cls-4" cx="172.67" cy="1030.8" r="84.87"/>
      <circle class="cls-4" cx="329.24" cy="597.37" r="84.87"/>
      <circle class="cls-4" cx="733.24" cy="810.73" r="84.87"/>
      <circle class="cls-4" cx="524.12" cy="1167.33" r="84.87"/>
      <path d="M357.18,623.22c-8.22,7.59-20.26.23-16.97-10.47-6.42.57-11.28-5.2-10.47-11.48-12.27-.7-25.55.93-37.69.02-8.5-.64-16.64-5.74-19.33-14.1-4.77-14.84,6.06-27.84,21.13-28.05,4.28-27.38,40.95-32.46,51.95-6.87,13.32,1.03,23.04,12.27,22.86,25.54,7.76-3.72,15.81,2.53,14.34,11.11-.37,2.15-1.75,3.01-2.37,4.85,10.86,4.43,6.6,20.25-4.99,18.97,3.13,10.16-7.28,17.35-15.97,11.47v19.96c4.11-.63,6.64,1.2,5.99,5.49,4.93-.49,4.7,3.16,4.49,6.99h8.73c.94,0,.94,2.49,0,2.49h-88.32c-.78,0-1.31-1.73-.75-2.49h7.98c-.45-4.68,3.49-5.95,7.48-5.49v-12.97c-3.35,2.31-9.45.89-10.38-3.35-.21-.94.08-3.32-.16-3.59-.1-.11-2-.48-2.79-.95-3.43-2.02-4.29-6.35-1.86-9.55.58-.76,2.23-1.68,2.26-1.85.3-1.87-2.16-3.12-.14-7.01,2.51-4.83,6.65-2.44,7.99-3.22.15-.09,1.1-2.25,1.83-2.92,2.26-2.04,6.78-2.12,9,0,.82.78,1.16,2.42,1.73,2.76,1.61.99,4.87-.83,7.5,2.12,1.46,1.64,1.74,3.71,1.46,5.83-.12.88-1.01,1.84-.9,2.45s1.82,1.76,2.35,2.64c2.57,4.28-.44,9.69-5.39,9.67.54,6.14-4.16,9.56-10,7.47v12.47c5.19-.61,7.18.62,8.73,5.49h30.19c-.17-3.89-.66-7.67,4.49-6.98-.76-4.87,1.49-5.92,5.98-5.49v-20.96ZM365.16,571.82c-1.51-10.18-10.87-16.55-20.74-17.42-6.39-14.74-22.71-21.33-36.9-12.53-7.21,4.47-10.4,11.58-11.68,19.76-25.99-1.75-30.24,33.61-4.29,37.16h38.84c1.53-2.92,3.43-4.32,6.33-5.76-7.02-8.84,1.81-19.12,11.98-15.72,1.5-7.52,10.55-10.65,16.47-5.49ZM357.18,608.25v-10.98c-1.7.59-7.8-2.72-7.48-4.23,2.4-2.42,4.47,2.57,7.48,1.74v-7.98c.77-.56,2.49-.03,2.49.75v7.24c2.1.25,4.01-2.09,5.76-2.48.86-.19,1.28-.3,1.24.74-.08,2.31-4.88,4.05-7,4.23v10.98c2.33.07,4.51-1.16,6.46-2.27.44-.25,3.51-3.45,4.02-.96.46,2.24-8.48,6.08-10.5,6.02.56,5.42-2.18,10.49,4.42,12.54,5.85,1.82,10.49-3.17,9.55-9.06-.32-2.02-2.29-2.89-1.45-4.76,3.79.57,7.97,1.42,10.7-2.02,2.84-3.59,1.93-9.07-2.05-11.38-1.45-.84-5.65-1.02-3.66-3.3.62-.71,1.44-.8,2.3-2.19,3.95-6.36-1.54-13.11-8.84-11.33-1.61.39-2.12,1.75-3.7,1.78-.8-.22-.94-3.46-1.36-4.63-3.12-8.71-16.08-4.99-14.87,4.14-1.79.41-2.66-1.2-4.26-1.47-5.93-1-10.73,2.93-9.59,9.09.56,3.03,2.22,3.04,3.4,4.57,1.91,2.47-2.05,2.24-3.64,2.9-5.28,2.19-6.05,9.75-1.34,13.06,3.2,2.25,5.59.34,8.45,2.04-3.44,5.15-.95,12.82,5.73,12.93,7.49.13,8.36-6.94,7.77-12.9-2,.32-12.86-4.41-10.5-6.77.97-.97,7.94,5.26,10.48,3.99ZM310.78,612.24c.17-7.29-8.2-7.75-8.79-.45-1.44,1.1-3.2-2.39-6.44-.06-3.68,2.65-.98,4.6.28,6.72,1.88,3.17-3.56,1.38-4.4,5.12-1.01,4.46,2.53,5.64,6.33,5.18,1.23.74-2.45,5.34,1.19,7.54,4.12,2.49,7.56-2.04,6.13-6.13-2.41-.83-5.22-1.5-6.26-4.2,2.04-2.2,3.97,2,6.48,1.24l-.06-5.43c-1.95-.08-6.63-2.55-3.2-4.06l3.25,1.5.05-4.43,1.21-.43.98.87.26,3.98c.46.52,3.47-2.81,3.99-.74.42,1.68-2.53,3.33-3.94,3.29l-.05,5.43c2.31.22,3.66-2.37,5.98-1.99.52,3.07-3.61,4.31-5.96,4.51.19,1.56-.57,5.22.46,6.23,2.25,2.19,6.68.67,7-2.56.18-1.78-1.65-3.32-.77-4.71.65-1.02,4.84,1.58,6.64-1.83,1.5-2.85-.29-6.06-3.5-6.14l-.63-.94c-.28-1.59,1.18-1.51,1.68-2.33,1.7-2.75.16-6.39-3.26-6.55-1.67-.08-2.89,1.77-4.66,1.35Z"/>
      <rect class="cls-3" x="353.69" y="646.67" width="9.48" height="2.99"/>
      <path d="M308.15,567.95c2.81-.51,8.22-.78,9,2.73.47,2.11.44,13.51.08,15.83-.75,4.87-10.95,4-11.84.92-.44-1.5-.38-14.88-.07-16.83.28-1.79,1.11-2.34,2.83-2.66ZM307.78,570.33v16.22c.84,1.21,6.27,1,6.77.28v-16.03s-6.77-.47-6.77-.47Z"/>
      <path d="M301.3,587.29l-.08,1.92c-12.08,2.89-18.26-14.96-6.92-20.14,1.3-.59,7.97-2.63,6.99.5-.27.85-3.85.9-5.13,1.36-9.88,3.55-5.12,17.91,5.14,16.36Z"/>
      <path d="M323.25,588.78h4.49s.02,1.69.02,1.69c-.27,1.14-7.23,1.19-7.53-.02-1.1-4.54,5.29-4.64,5.05-7.39-.09-.98-.74-1.45-1.71-1.19-1.38.36-1.26,3.21-2.56,2.93-3.51-6.29,7.56-7.93,6.76-.73-.31,2.75-3.1,2.92-4.52,4.72Z"/>
      <path d="M186.24,990.51c.2,1.04-.96,1.89-.63,2.85.19.54,6.5,8.87,7.05,9.04,4.2-2,8.27-3.56,13.03-3.21,21.48,1.58,26.89,30.66,7.63,40.02l3.91,10.45c3.13.7,6.07,1.21,7.4,4.51,2.34,5.8-2.67,11.37-8.65,9.47-1.05-.33-2.39-1.65-3.19-1.58-.76.07-9.98,5.04-11.37,5.86-3.5,2.06-1.87,1.7-2.74,5.07-1.75,6.8-11.88,6.54-13.49.09-.35-1.4.15-3.37-.57-4.36l-10.51-6.22c-8.22,10.08-22.13,11.5-31.97,2.79l-8.7,7.77c3.08,6.28-4.09,13.09-10.03,9.23-5.98-3.89-3.35-12.08,3.27-13.2l8.97-49.17c-2.02-1.24-4.22-1.87-6.23-3.19-10.01-6.54-12.38-20.82-4.97-30.28,10.35-13.21,30.75-10.02,36.32,5.72l11.85-3.34c.07-8.08,11.5-9.93,13.6-2h18.07v3.7h-18.07ZM137.68,981.99c-18.65,2.69-18.85,32.9,1.99,34.75,25.11,2.23,25.43-38.7-1.99-34.75ZM178.73,985.25c-3.77.82-3.08,7.91,1.87,6.82,4.18-.92,3.03-7.89-1.87-6.82ZM173.85,992.19l-11.67,3.22c-.47,2.48.05,5.02-.29,7.52-.92,6.76-6.59,13.06-12.66,15.77l2.91,10.83c8.42-1.86,16.09,1.28,21.55,7.69l11.54-7.28c-.3-2.19-1.58-4.18-1.83-6.41-.86-7.4,1.44-13.5,6.44-18.84l-7.29-9.45c-3.24,1.09-7.19.31-8.71-3.04ZM201.33,1002.94c-21.66,2.94-18.01,37.48,5.19,34.76,22.17-2.6,19.07-38.05-5.19-34.76ZM148.83,1030.72l-3.23-10.87-6.57.26-8.86,49.24.84,1.25,8.77-8.06c-7.57-11.26-3.66-26.57,9.07-31.81ZM155.34,1032.52c-24.65,2.54-18.45,40.29,5.79,34.53,20.84-4.96,15.27-36.7-5.79-34.53ZM197.74,1040.21c-4.37-1.28-7.43-4.14-10.47-7.33l-11.53,7.31c1.89,4.83,2.83,8.86,1.76,14.06-.24,1.19-1.71,4.69-1.34,5.26l10.71,6.43,5.06-1.99,5.83-23.74ZM214.11,1051.63l-4.04-10.84c-3.08-.02-5.83.99-9.01.28l-5.6,23.76c.61.78,1.31,1.53,2.37,1.17,1.78-1.5,12.98-6.25,13.38-7.6.32-1.09-.07-2.28.39-3.72.32-.99,1.48-2.71,2.51-3.05ZM216.92,1053.85c-2.74.65-2.84,5.47-.32,6.3,6.41,2.1,6.88-7.86.32-6.3ZM190.63,1067.81c-3.08.91-2.75,6.35.83,6.82,5.4.7,5.14-8.59-.83-6.82ZM126.96,1072.77c-4.44.23-4.44,7.96,1.16,6.85,3.62-.71,3.18-7.08-1.16-6.85Z"/>
      <path d="M211.29,986.81v3.7s-3.7,0-3.7,0l.18-3.31c.5-.72,2.63-.28,3.52-.39Z"/>
      <path d="M218.27,986.81v3.7s-3.7,0-3.7,0l.18-3.31c.5-.72,2.63-.28,3.52-.39Z"/>
      <path d="M225.25,986.81v3.7l-3.31-.18c-.64-.45-.48-2.39-.2-3.13l3.52-.39Z"/>
      <path d="M158.72,1036.1l.02,3.27c3.78-.09,7.21,2.83,6.98,6.78-.07,1.24-1.16,2.74-1.15,2.9,0,.22,2.23,2.15,2.59,3.47,1.48,5.59-3.38,8.73-8.43,8.22v3.29s-3.7,0-3.7,0l-.02-3.27c-1.14-.13-3.02-.06-3.27-1.45v-18.49c.28-1.49,2.14-1.48,3.29-1.44v-3.29s3.7,0,3.7,0ZM155.02,1043.08l.39,5.16c2.69.49,7.27.65,6.6-3.29-.48-2.85-4.94-1.64-6.99-1.87ZM155.02,1057.04h7.19c.39,0,1.82-1.98,1.82-2.67,0-.89-1.5-2.67-2.23-2.67h-6.78v5.34Z"/>
      <path d="M142.7,985.17l.18,3.31c2.75.48,5.27.92,6.48,3.79,1.36,3.25-.64,5.52-.47,6.22.09.38.91.55,1.21.96,4.39,5.85-1.01,11.48-7.4,10.36v3.29s-3.29,0-3.29,0v-3.29c-1.96.26-3.32-.15-3.67-2.28-.43-2.63-.4-14.12,0-16.79.35-2.31,1.72-1.93,3.67-1.87v-3.7s3.29,0,3.29,0ZM145.86,993.09c-1.24-1.52-4.66-.77-6.45-.94v5.34c2.68.8,9.59-.53,6.45-4.4ZM139.42,1006.12h7.19c.81,0,1.6-2.09,1.44-3.06s-1.88-2.28-2.67-2.28h-5.96v5.34Z"/>
      <path d="M205.95,1006.12v3.7c4.06-.56,7.47,2.64,6.99,6.78-.11,1-.97,2.08-.79,2.78.17.65,1.85,1.75,2.22,3.15,1.52,5.78-3.06,9.06-8.43,8.22v3.7s-3.29,0-3.29,0v-3.7c-1.45,0-3.33.43-3.68-1.45v-18.05c.42-2.23,2.89-.98,3.51-1.83l.18-3.32h3.29ZM202.66,1018.44c9.27,1.47,9.1-6.66,0-5.34v5.34ZM202.66,1027.06h7.19c1.68,0,1.68-4.93,0-4.93h-7.19v4.93Z"/>
      <path d="M193.64,1010.64l2.89,2.25c-3.5,4.28-3.41,8.58-1.29,13.49-4.25,4.75-5.15-4.83-4.91-7.75.26-3.21,1.8-5.31,3.31-7.99Z"/>
      <path d="M526.39,1143.62c3.96-.15,3.26-9.35,6.63-8.66,2.26.46,7.12,11.46,7.72,13.91.52,2.14.98,5.13.86,7.32s-2.35,7.77-2.19,8.7c.12.76,3.16,5.59,3.82,7.26,7.7,19.72-2.44,42.51-22.54,49.18-30.26,10.05-58.21-18.55-47.43-48.6.63-1.74,2.66-4.52,2.76-6.02.11-1.61-1.03-4-1.13-5.84-.61-10.66,3.62-19.57,2.02-30.13l1.31-1.12c2.52-.66,9.38,10.12,11.88,11.65.52-12.1,6.1-22.17,16.8-27.98,10.67-5.79,6.06,1.65,6.19,7.04.24,9.6,8.83,15.84,13.31,23.28ZM509.99,1124.6c-.42-2.7.31-6.26,0-9.07-11.25,5.94-16.64,15.63-16.38,28.39.03,1.6,1.76,7.39-2.68,4.43-1.72-1.14-5.73-7.39-7.56-9.41-.74-.82-1.66-1.81-2.64-2.33.72,6.66-2.85,13.78-2.87,20.26,0,3.14,2,7.74,1.68,10.42-.26,2.16-3.49,7.24-4.26,10.42-6.76,27.74,21.26,50.82,47.31,39.11,16.18-7.27,23.79-26.24,17.71-42.9-.83-2.28-4.2-7.05-4.46-8.47-.39-2.14,2.29-7.08,2.3-10.4.01-4.49-2.34-11.05-5.31-14.34-.38,2.44-4.22,9.1-7.03,7.33-4.27-6.64-14.57-15.49-15.8-23.42Z"/>
      <path d="M569.11,1162.36c6.23-.92,9.02,4.15.96,3.59-1.5.48-1.08,3.86-.7,5.23.95,1.38,5.6-.61,5.6,2.01s-4.65.64-5.6,2.01c-.38,1.37-.8,4.75.7,5.23,1.34.42,4.9-.77,4.9,1.54,0,2.55-4.45.71-5.6,2.01-.5.71-.45,7.42.04,8.23.27.44,3.16,2.4,4.1,3.51,5.92,6.96,4.87,18.27-2.45,23.9-16.71,12.86-36.95-9.38-22.75-25.09,1.07-1.18,3-1.47,3.23-3.21,1.24-11.15-1.69-26.03.15-36.73,1.24-7.24,10.46-10.21,15.39-4.55,3.18,3.65,1.76,7.87,2.03,12.31ZM564.22,1152.03c-2.8-2.79-7.43-1.38-8.9,2.1l-.27,38.95c-1.62,2.71-4.78,3.9-6.45,7.02-7.24,13.54,10.19,26.44,21.22,16.12,5.48-5.13,5.29-14.53-.12-19.62-1.41-1.33-3.64-1.63-3.97-3.61l-.11-37.96c-.09-1.07-.66-2.25-1.4-2.99Z"/>
      <path d="M503.41,1156.07c43.3-5.51,46.95,58.39,6.27,60.14-38.21,1.65-42.12-55.58-6.27-60.14ZM506.48,1159.43c-13.03.35-24.6,12.1-24.58,25.17,3.17-.99,8.48-.99,11.53.46,1.22.58,4.26,4.09,5.77,1.91.97-1.4-1.03-3.35.55-5.29,1.28-1.58,3.3-1.06,5-2.62.9-.82,3.02-4.42,3.26-5.57.64-3.1-3.06-4.32-3.33-7.33-.3-3.19,2.44-3.6,1.8-6.74ZM490.38,1187.53c-2.44-.44-5.9.32-8.49,0,.52,17.35,18.16,28.89,34.54,23.99-2.8-4.16-13.18,2.22-15.5-2.93-2.36-5.25,5.05-6.25,8.47-7.02-7.71-14.39,5.74-9.64,13.77-9.91,2.66-.09,5.1-1.17,7.64-1.74,1.04-.23,2.4.18,3.39-.13,1.89-.59.77-6.72.38-8.43-.18-.81.51-1.7-.88-1.44-3.75,3.74-8.14,8.08-13.93,6.88-8.2-1.7-1.6-8.31,1.82-11.27-3.85-4.61-5.21-8.78-2.24-14.34-2.89-.33-5.49-1.87-8.49-1.78-1.69.05-.54,2.23-.99,3.71-.27.9-1.67,1.39-1.67,2.45,0,1.63,4.24,3.56,3.29,8.51-.51,2.65-3.71,7.24-5.98,8.69-.75.47-2.38.58-2.49.72-.77.88,1.66,5.87-3.56,7.27-4.93,1.32-5.91-2.67-9.09-3.24ZM522.3,1163.54c-4.35,4.9,3.46,9.29,3.45,11.99,0,2.73-4.99,4.81-6.39,7.02,2.7,4.23,13.41-5.45,13.44-7.01.21-2.57-8.88-13.14-10.51-12.01ZM533.99,1193.38c-.73-.65-9.46,1.78-11.42,1.8-3.85.04-7.96-1.76-12-.63-.48,2.11,1.41,3.12,1.73,5,1.02,6.07-3.92,5.57-8.16,6.99,3.23,1.73,7.42-.29,11.38.33,1.8.28,3.46,2,4.86,2.21,3.98.6,13.4-11.37,13.61-15.7Z"/>
      <path d="M506.44,1124.94c.98,1.36-2.61,5.42-3.3,6.85-1.36,2.84-1.19,8.27-4.79,6.5-1.4-2.37,3.21-12.64,5.82-13.72.57-.23,2.1.12,2.27.36Z"/>
      <path d="M482.53,1160.54c-1.45-.96-.18-9.55.53-11.35.32-.81.31-1.5,1.46-1.5,3.35,0,1.14,5.39.89,7.35-.18,1.38.48,4.58-.55,5.3l-2.33.2Z"/>
      <path d="M562.09,1160.02v36.29c12.49,2.05,11.07,20.32-1.45,20.53-12.8.21-14.41-17.81-2.03-20.91v-34.43s1.15-1.81,1.15-1.81l2.33.33ZM557.84,1199.97c-6.45,1.66-5.43,13.15,2.19,13.37,10.69.3,9.39-16.34-2.19-13.37Z"/>
      <path d="M720.77,791.36c.32-1.16,2.53-1.26,3.56-1.11-.63-4.59,2.57-7.75,7.12-7.12l.25-3.57h3.31s0,3.57,0,3.57c4.55-.63,7.75,2.53,7.12,7.12.85-.26,3.56.16,3.56,1.11v7.79h13.13c.08,0,.79.69.88.9l.3,25.96c4.89,3.08,9.14,6.75,13.07,10.97.89.95,2.75,4.02,3.52,4.49,1.13.69,3.01.42,4.57,1.21,3.8,1.93,4.8,7.07,2.4,10.49,4.31,2.9,5.35,6.79,4.86,11.85h-3.57c.43-4.17-.27-8.34-5.12-8.9-7.15-.83-9.5,1.92-9.38,8.91h-3.31c.41-4.99-.41-8.57-5.99-8.93-6.7-.43-8.87,2.33-8.25,8.92h-3.57c.41-4.99-.41-8.56-5.99-8.92-6.7-.43-8.87,2.33-8.25,8.92h-3.57c.41-4.99-.41-8.56-5.99-8.92-6.99-.45-8.46,2.36-8.51,8.93h-3.31c.43-4.2-.28-8.34-5.12-8.91-6.86-.8-9.92,1.9-9.12,8.9h-3.57c.62-6.59-1.56-9.35-8.25-8.92-5.57.36-6.4,3.93-5.99,8.92h-3.57c-.48-5.07.54-8.95,4.86-11.85-2.4-3.42-1.4-8.56,2.4-10.49,1.26-.64,3.24-.59,3.77-.9.28-.17,3.09-4.38,3.88-5.24,3.99-4.36,8.56-7.9,13.59-10.99l.22-25.5c.1-.21.81-.9.88-.9h13.13v-7.79ZM738.58,790.25c.01-1.08.28-2.77-.89-3.34s-8.98-.57-9.57.67l-.22,2.67h10.68ZM742.14,793.81h-17.8v25.37h3.56v-6.45c0-.8,1.76-1.07,2.42-1.14,1.34-.13,8.26-.36,8.26,1.14v6.45l3.56.45v-25.82ZM720.77,802.71h-10.68v20.92l10.68-3.56v-17.36ZM756.38,802.71h-10.68v17.8c3.79.31,7.15,2.37,10.68,3.56v-21.36ZM735.02,815.17h-3.57v3.57h3.57v-3.57ZM744.36,823.64c-8.36-1.93-17.14-1.83-25.37.66-.71.55-.31.44,0,.89.53.78,1.23,1.03,1.81,2.2.43.87,1.91,5.43,1.7,6.16-3.71,3.72-7.19,5.58-12.6,4.74-1.55-.24-2.66-1.54-4.47-1.76-1.31-.16-6.78-.18-7.79.24l-4.85,5.86c2.67,3.02,4.5,6.5,1.79,10.25-.14.88,1.51,1.52,2.18,2.13.35.32.37,1.06.43,1.11.87.68.94-.77,1.31-1.11.73-.67,1.71-.96,2.21-1.84-6.68-14.89,18.31-14.93,11.65,0,.5.88,1.48,1.17,2.21,1.84.35.32.37,1.06.43,1.11.87.68.94-.77,1.31-1.11.73-.67,1.71-.96,2.21-1.84-6.67-14.91,18.32-14.91,11.65,0,.5.88,1.48,1.17,2.21,1.84.35.32.37,1.06.43,1.11.87.68.94-.77,1.31-1.11.73-.67,1.71-.96,2.21-1.84-6.67-14.91,18.32-14.91,11.65,0,.5.88,1.48,1.17,2.21,1.84.35.32.37,1.06.43,1.11.87.68.94-.77,1.31-1.11.73-.67,1.71-.96,2.21-1.84-6.67-14.91,18.32-14.91,11.65,0,.5.88,1.48,1.17,2.21,1.84.35.32.37,1.06.43,1.11.87.68.94-.77,1.31-1.11.73-.67,1.71-.96,2.21-1.84-2.37-3.68-1.35-7,1.31-10.1-.11-.74-5.8-7.26-6.63-7.64-1.96-.9-6.01,1.13-8.23,1.11-1.72-.01-3.61-1.57-5.3-1.34-1.46.2-3.7,2.85-5.8,3.14-1.22.17-6.01.19-7.13-.03-1.28-.25-5.11-6.05-5.07-7.68.09-.32,4.05-4.39,4.4-4.54,1.8-.8,4.08.73,4.89-2.45ZM762.17,832.08c-3.97-3.53-9.17-5.48-14.04-7.45-.69.11-2.35,4.1-3.32,4.57-1.68.81-4.41-.68-5.68,2.22,1.06,3.61,4.73,4.11,8.02,3.24,1.42-.38,4.1-3.32,5.47-3.45,1.45-.14,3.93,1.54,5.42,1.68,1.28.12,2.84-.64,4.13-.8ZM702.08,832.97c4.8-1.05,7.63,2.46,12.26,1.8,1.02-.15,4.17-1.93,4.2-2.88-.5-2.51-1.77-4.9-4.21-6.03l-6.32,3.03-5.93,4.08ZM687.72,845.53c-4.1.89-3.19,8.08,2.02,6.95,4.1-.89,3.19-8.08-2.02-6.95ZM705.52,845.53c-4.1.89-3.19,8.08,2.02,6.95,4.1-.89,3.19-8.08-2.02-6.95ZM723.32,845.53c-4.1.89-3.19,8.08,2.02,6.95,4.1-.89,3.19-8.08-2.02-6.95ZM741.13,845.53c-4.1.89-3.19,8.08,2.02,6.95,4.1-.89,3.19-8.08-2.02-6.95ZM758.93,845.53c-4.1.89-3.19,8.08,2.02,6.95,4.1-.89,3.19-8.08-2.02-6.95ZM776.73,845.53c-4.1.89-3.19,8.08,2.02,6.95,4.1-.89,3.19-8.08-2.02-6.95Z"/>
      <path d="M774.09,760.97c4.79,15.12-5.16,25.07-20.28,20.28-4.71-14.91,5.37-24.98,20.28-20.28ZM769.29,763.55c-8.45-.88-13.71,3.19-12.9,12.01l12.9-12.01ZM758.61,778.67c8.25.92,13.73-2.84,12.9-11.57l-12.9,11.57Z"/>
      <path d="M706.43,789.26c-14.95,4.67-24.96-5.33-20.28-20.28,15.11-4.79,25.07,5.16,20.28,20.28ZM703.86,783.13c.82-8.72-4.65-12.49-12.9-11.57l12.9,11.57ZM701.63,786.68l-12.9-12.01c-.81,8.82,4.45,12.89,12.9,12.01Z"/>
      <path d="M753.71,761.33l-1.6,3.14c-15.07-7.4-32.8-5.61-45.36,5.71l-1.94-2.49c-.22-1.42,8.7-6.59,10.32-7.34,12.55-5.78,26.27-4.95,38.58.97Z"/>
      <path d="M772.82,782.7c4.57,11.5,4.17,24.66-1.36,35.76-.64,1.28-4.89,8.31-5.95,8.31l-2.42-2.42c9.74-11.07,11.88-27.23,6.2-40.78l3.53-.88Z"/>
      <path d="M691.6,791.7c.9.42,2.52.08,2.86,1.06.23.67-.52,7.06-.41,8.86.47,7.77,3.52,15.08,7.95,21.35l-2.44,1.95c-.86.13-4.16-5.69-4.69-6.77-2.36-4.81-4.1-11.18-4.39-16.53-.08-1.44-.08-9.7,1.11-9.93Z"/>
      <rect x="727.89" y="797.37" width="10.68" height="3.56"/>
      <rect x="727.89" y="804.49" width="10.68" height="3.56"/>
      <rect x="749.26" y="806.27" width="3.57" height="3.57"/>
      <rect x="749.26" y="813.39" width="3.57" height="3.57"/>
      <rect x="713.65" y="806.27" width="3.57" height="3.57"/>
      <rect x="713.65" y="813.39" width="3.57" height="3.57"/>
    </g>
    <text class="cls-5" transform="translate(243.39 1378.08)"><tspan x="0" y="0">Bitcoin is more than a store of </tspan><tspan x="0" y="35.6">value—it is the foundation of a </tspan><tspan x="0" y="71.2">decentralized and resilient financial </tspan><tspan x="0" y="106.8">system.</tspan><tspan x="0" y="178">Stock Capital holds strategic Bitcoin </tspan><tspan x="0" y="213.6">reserves, ensuring protection </tspan><tspan x="0" y="249.2">against inflation, long-term value </tspan><tspan x="0" y="284.8">preservation, and alignment with </tspan><tspan x="0" y="320.4">the principles of financial freedom </tspan><tspan x="0" y="356">and digital sovereignty.</tspan></text>
    <rect class="cls-1" x="244.78" y="1307.4" width="190.41" height="27.09"/>
    <text class="cls-2" transform="translate(261.37 1328.31)"><tspan x="0" y="0">BITCOIN RESERVES</tspan></text>
    <rect class="cls-1" y=".86" width="176.79" height="27.09"/>
    <text class="cls-2" transform="translate(16.59 20.77)"><tspan x="0" y="0">CLIMATE IMPACT</tspan></text>
    <text class="cls-5" transform="translate(0 67.85)"><tspan x="0" y="0">Stock Capital is committed to </tspan><tspan x="0" y="35.6">generating a positive environmental </tspan><tspan x="0" y="71.2">impact through innovation and </tspan><tspan x="0" y="106.8">sustainability.</tspan><tspan x="0" y="178">Our business model integrates </tspan><tspan x="0" y="213.6">advanced technologies and </tspan><tspan x="0" y="249.2">responsible practices to reduce </tspan><tspan x="0" y="284.8">carbon emissions, support </tspan><tspan x="0" y="320.4">environmental projects, and drive </tspan><tspan x="0" y="356">the transition to a greener and more </tspan><tspan x="0" y="391.6">efficient economy.</tspan></text>
    <rect x="444.45" y="873.85" width="17" height="17"/>
    <line class="cls-6" x1="452.95" y1="882.55" x2="742.19" y2="440.76"/>
    <rect x="733.69" y="432.26" width="17" height="17"/>
    <rect x=".28" y="492.44" width="17" height="17"/>
    <line class="cls-6" x1="218.21" y1="1320.94" x2="452.95" y2="882.55"/>
    <rect x="207.92" y="1312.44" width="17" height="17"/>
    <line class="cls-6" x1="452.95" y1="882.55" x2="8.78" y2="500.94"/>
  </g>
</svg>